<?xml version="1.0" encoding="UTF-8"?>
<svg id="Layer_2" data-name="Layer 2" xmlns="http://www.w3.org/2000/svg" viewBox="0 0 1561.89 322.5">
  <defs>
    <style>
      .cls-1 {
        fill: #fff;
      }
    </style>
  </defs>
  <g id="Camada_2" data-name="Camada 2">
    <g>
      <path class="cls-1" d="M978.74,307.31c-46.21,0-68.3-27.81-68.3-69.93V15.32h58.89v215.93c0,14.72,6.13,24.95,21.27,26.17l-11.86,49.89Z"/>
      <path class="cls-1" d="M855.99,64.39c6.13,0,13.9,1.64,20.45,4.5l11.45-47.03c-9.82-4.09-22.9-6.54-39.26-6.54-50.71,0-86.7,27.81-86.7,84.24v21.68h-28.63v50.3h28.63v52l.35,22.9c0,14.72-6.13,24.95-21.27,26.17l11.86,49.89c46.21,0,68.3-27.81,68.3-69.93l.46-29.03v-52h39.26l11.45-50.3h-50.71v-16.77c0-24.95,11.45-40.08,34.35-40.08Z"/>
      <path class="cls-1" d="M1110.01,312.22c-55.62,0-100.6-39.26-100.6-98.15s44.99-98.97,100.6-98.97,101.01,39.67,101.01,98.97-45.39,98.15-101.01,98.15ZM1110.01,166.63c-22.08,0-41.71,18.81-41.71,47.44s19.63,47.44,41.71,47.44,41.71-18.81,41.71-47.44-19.22-47.44-41.71-47.44Z"/>
      <path class="cls-1" d="M1364.37,171.54h-50.71v64.61c0,17.18,8.59,24.13,24.54,24.13,5.32,0,9.41-.41,15.54-2.45l-5.32,46.21c-6.14,3.27-15.95,4.91-27.81,4.91-41.71,0-66.66-22.08-66.66-58.89v-78.52h-28.63v-50.3h28.63v-39.67l59.71-21.68v61.34h62.16l-11.45,50.3Z"/>
      <path class="cls-1" d="M1381.95,213.25c0-60.53,44.17-98.15,96.11-98.15s83.84,34.76,83.84,76.06c0,8.59-.82,13.9-1.64,19.63l-25.36,18.81h-96.51c5.73,22.08,25.36,35.17,58.07,35.17,23.31,0,40.49-4.91,53.16-13.09l-5.73,49.89c-13.9,6.54-32.72,10.63-57.25,10.63-59.3,0-104.69-39.26-104.69-98.97ZM1440.02,190.76h66.25v-4.5c0-13.09-11.45-27.81-28.63-27.81-13.9,0-30.67,8.59-37.62,32.31Z"/>
    </g>
    <path class="cls-1" d="M547.6,136.15c-24.83-14.3-54.34-27.44-87.8-39.12-5.66-36.5-39.17-69.96-87.54-86.59-9.34-3.21-19.13-5.73-29.11-7.49-62.15-10.96-120.23,9.31-141.79,48.51-52.57-.71-98.48,4.67-133.1,15.61C17.94,82.96,3.76,106.85.72,124.09c-3,17.03,1.98,44,42.78,75.78,28.7,22.36,70.28,43.39,120.4,60.91,18.21,20.55,66.49,40.13,124.89,50.43,58.4,10.3,110.47,8.41,134.61-4.67,53.09.67,99.37-4.88,133.97-16.07,49.21-15.91,63.12-39.54,66.12-56.57,5.59-31.68-21.37-66.4-75.89-97.75ZM334.17,26.11c-10.25,2.08-14.62,8.87-14.29,16.43.53,12.06,26.7,25.12,59.36,42.01-15.75-3.71-31.99-7.06-48.63-9.99-.03,0-.06,0-.08-.01,0,0,0,0,0,0-.04,0-.08-.01-.12-.02-4.07-.72-8.13-1.4-12.17-2.05-.72-.12-1.44-.24-2.16-.35-3.75-.6-7.49-1.16-11.21-1.71-1.04-.15-2.09-.3-3.13-.45-3.53-.5-7.05-.99-10.56-1.44-1.2-.16-2.39-.3-3.59-.45-3.01-.38-6.01-.74-9-1.09-1.6-.18-3.19-.36-4.79-.53-2.48-.27-4.96-.53-7.43-.78-1.7-.17-3.39-.34-5.07-.5-2.71-.25-5.4-.49-8.09-.72-1.69-.14-3.38-.28-5.06-.41-2.78-.21-5.54-.42-8.29-.6-1.75-.12-3.5-.22-5.24-.33-1.95-.12-3.88-.22-5.81-.32-1.22-.06-2.47-.15-3.69-.2,15.77-28.16,60.05-43.7,109.05-36.48ZM595.66,238.4c-5.37,30.43-73.07,49.4-167.13,48.57.16-.5.29-1,.38-1.51.18-1.02.23-2.05.14-3.11-1.74-20.9-55.67-46.6-124.8-58.79-69.15-12.19-128.6-6.48-137.38,12.56-.44.96-.75,1.95-.93,2.97-.09.51-.14,1.03-.16,1.55C77.1,209.24,19.96,168.27,25.33,137.83c7.68-43.53,177.09-35.7,296.61-14.63,121.54,21.43,281.39,71.66,273.72,115.19Z"/>
  </g>
</svg>